<svg width="24" height="24" viewBox="0 0 24 24" fill="none" xmlns="http://www.w3.org/2000/svg">
<path d="M6.46154 0C7.40971 0 8.32327 0.194966 9.15359 0.581906C10.179 1.04172 11.2242 1.83643 12 3.14183C12.7758 1.83643 13.821 1.04172 14.8464 0.581906C15.6767 0.194966 16.5903 0 17.5385 0C21.1802 0 24 3.37499 24 7.35801C24 11.8155 21.0155 15.9545 18.2439 18.8712C15.5768 21.6779 12.8983 23.5674 12.5404 23.8155C12.3817 23.9362 12.191 24 12 24C11.809 24 11.6183 23.9362 11.4596 23.8155C11.1017 23.5674 8.42313 21.6779 5.75611 18.8712C2.98454 15.9545 0 11.8155 0 7.35801C0 3.37499 2.81982 0 6.46154 0Z" fill="url(#paint0_linear_2996_73)"/>
<defs>
<linearGradient id="paint0_linear_2996_73" x1="12" y1="0" x2="12" y2="24" gradientUnits="userSpaceOnUse">
<stop stop-color="#FF1212"/>
<stop offset="0.692708" stop-color="#750000"/>
</linearGradient>
</defs>
</svg>
