<svg width="27" height="27" viewBox="0 0 27 27" fill="none" xmlns="http://www.w3.org/2000/svg">
<path fill-rule="evenodd" clip-rule="evenodd" d="M26.6667 10C26.6667 15.5228 22.1895 20 16.6667 20C14.3578 20 12.2317 19.2175 10.5391 17.9033C10.4753 18.0382 10.3877 18.1646 10.2761 18.2761L2.27614 26.2761C1.75544 26.7968 0.911223 26.7968 0.390524 26.2761C-0.130175 25.7554 -0.130175 24.9112 0.390524 24.3905L8.39052 16.3905C8.50207 16.279 8.62847 16.1913 8.76336 16.1276C7.44913 14.4349 6.66667 12.3088 6.66667 10C6.66667 4.47715 11.1438 0 16.6667 0C22.1895 0 26.6667 4.47715 26.6667 10ZM24 10C24 5.94991 20.7168 2.66667 16.6667 2.66667C12.6166 2.66667 9.33333 5.94991 9.33333 10C9.33333 14.0501 12.6166 17.3333 16.6667 17.3333C20.7168 17.3333 24 14.0501 24 10Z" fill="#D9D9D9"/>
</svg>
