<svg width="233" height="56" viewBox="0 0 233 56" fill="none" xmlns="http://www.w3.org/2000/svg">
    <path d="M96.2852 41H90.0977L80.7812 27.9746V41H75.332V15.3008H80.7812V27.7461L89.9922 15.3008H95.793L86.4238 27.6406L96.2852 41ZM116.957 31.1387C116.957 32.7793 116.734 34.2324 116.289 35.498C115.855 36.7637 115.217 37.8359 114.373 38.7148C113.541 39.582 112.533 40.2383 111.35 40.6836C110.178 41.1289 108.854 41.3516 107.377 41.3516C105.994 41.3516 104.723 41.1289 103.562 40.6836C102.414 40.2383 101.412 39.582 100.557 38.7148C99.7129 37.8359 99.0566 36.7637 98.5879 35.498C98.1309 34.2324 97.9023 32.7793 97.9023 31.1387C97.9023 28.959 98.2891 27.1133 99.0625 25.6016C99.8359 24.0898 100.938 22.9414 102.367 22.1562C103.797 21.3711 105.502 20.9785 107.482 20.9785C109.322 20.9785 110.951 21.3711 112.369 22.1562C113.799 22.9414 114.918 24.0898 115.727 25.6016C116.547 27.1133 116.957 28.959 116.957 31.1387ZM103.369 31.1387C103.369 32.4277 103.51 33.5117 103.791 34.3906C104.072 35.2695 104.512 35.9316 105.109 36.377C105.707 36.8223 106.486 37.0449 107.447 37.0449C108.396 37.0449 109.164 36.8223 109.75 36.377C110.348 35.9316 110.781 35.2695 111.051 34.3906C111.332 33.5117 111.473 32.4277 111.473 31.1387C111.473 29.8379 111.332 28.7598 111.051 27.9043C110.781 27.0371 110.348 26.3867 109.75 25.9531C109.152 25.5195 108.373 25.3027 107.412 25.3027C105.994 25.3027 104.963 25.7891 104.318 26.7617C103.686 27.7344 103.369 29.1934 103.369 31.1387ZM132.32 20.9785C134.535 20.9785 136.322 21.8398 137.682 23.5625C139.053 25.2852 139.738 27.8105 139.738 31.1387C139.738 33.3652 139.416 35.2402 138.771 36.7637C138.127 38.2754 137.236 39.418 136.1 40.1914C134.963 40.9648 133.656 41.3516 132.18 41.3516C131.23 41.3516 130.416 41.2344 129.736 41C129.057 40.7539 128.477 40.4434 127.996 40.0684C127.516 39.6816 127.1 39.2715 126.748 38.8379H126.467C126.561 39.3066 126.631 39.7871 126.678 40.2793C126.725 40.7715 126.748 41.252 126.748 41.7207V49.6484H121.387V21.3477H125.746L126.502 23.8965H126.748C127.1 23.3691 127.527 22.8828 128.031 22.4375C128.535 21.9922 129.139 21.6406 129.842 21.3828C130.557 21.1133 131.383 20.9785 132.32 20.9785ZM130.598 25.2676C129.66 25.2676 128.916 25.4609 128.365 25.8477C127.814 26.2344 127.41 26.8145 127.152 27.5879C126.906 28.3613 126.771 29.3398 126.748 30.5234V31.1035C126.748 32.3691 126.865 33.4414 127.1 34.3203C127.346 35.1992 127.75 35.8672 128.312 36.3242C128.887 36.7812 129.672 37.0098 130.668 37.0098C131.488 37.0098 132.162 36.7812 132.689 36.3242C133.217 35.8672 133.609 35.1992 133.867 34.3203C134.137 33.4297 134.271 32.3457 134.271 31.0684C134.271 29.1465 133.973 27.6992 133.375 26.7266C132.777 25.7539 131.852 25.2676 130.598 25.2676ZM151.322 20.9785C152.74 20.9785 154.064 21.166 155.295 21.541C156.525 21.9043 157.521 22.4727 158.283 23.2461C159.045 24.0078 159.426 24.9922 159.426 26.1992C159.426 27.3828 159.068 28.3262 158.354 29.0293C157.639 29.7207 156.689 30.2188 155.506 30.5234V30.6992C156.338 30.8984 157.088 31.168 157.756 31.5078C158.436 31.8477 158.975 32.3164 159.373 32.9141C159.771 33.5117 159.971 34.2969 159.971 35.2695C159.971 36.3594 159.625 37.3672 158.934 38.293C158.242 39.207 157.182 39.9453 155.752 40.5078C154.334 41.0703 152.512 41.3516 150.285 41.3516C149.23 41.3516 148.234 41.3047 147.297 41.2109C146.371 41.1172 145.521 40.9824 144.748 40.8066C143.975 40.6191 143.301 40.3965 142.727 40.1387V35.709C143.535 36.084 144.531 36.4297 145.715 36.7461C146.91 37.0625 148.182 37.2207 149.529 37.2207C150.502 37.2207 151.381 37.1504 152.166 37.0098C152.963 36.8691 153.59 36.6348 154.047 36.3066C154.516 35.9668 154.75 35.5156 154.75 34.9531C154.75 34.4258 154.545 33.9922 154.135 33.6523C153.736 33.3008 153.121 33.043 152.289 32.8789C151.469 32.7031 150.426 32.6152 149.16 32.6152H147.086V28.9062H149.055C150.836 28.9062 152.213 28.7598 153.186 28.4668C154.158 28.1738 154.645 27.6348 154.645 26.8496C154.645 26.2168 154.334 25.7422 153.713 25.4258C153.092 25.1094 152.066 24.9512 150.637 24.9512C149.711 24.9512 148.691 25.0625 147.578 25.2852C146.465 25.4961 145.422 25.8008 144.449 26.1992L142.867 22.4551C144.004 22.0215 145.234 21.6699 146.559 21.4004C147.895 21.1191 149.482 20.9785 151.322 20.9785ZM169.357 21.3477V29.1172C169.357 29.5156 169.34 30.0195 169.305 30.6289C169.281 31.2266 169.246 31.8359 169.199 32.457C169.152 33.0781 169.105 33.6348 169.059 34.127C169.012 34.6191 168.977 34.9531 168.953 35.1289L178.023 21.3477H184.475V41H179.289V33.1602C179.289 32.5156 179.312 31.8066 179.359 31.0332C179.406 30.248 179.459 29.5098 179.518 28.8184C179.576 28.127 179.617 27.6055 179.641 27.2539L170.605 41H164.172V21.3477H169.357ZM195.479 21.3477V28.9062H202.967V21.3477H208.328V41H202.967V32.8965H195.479V41H190.117V21.3477H195.479ZM222.004 20.9434C224.641 20.9434 226.662 21.5176 228.068 22.666C229.475 23.8145 230.178 25.5605 230.178 27.9043V41H226.434L225.396 38.3281H225.256C224.693 39.0312 224.119 39.6055 223.533 40.0508C222.947 40.4961 222.273 40.8242 221.512 41.0352C220.75 41.2461 219.824 41.3516 218.734 41.3516C217.574 41.3516 216.531 41.1289 215.605 40.6836C214.691 40.2383 213.971 39.5586 213.443 38.6445C212.916 37.7188 212.652 36.5469 212.652 35.1289C212.652 33.043 213.385 31.5078 214.85 30.5234C216.314 29.5273 218.512 28.9766 221.441 28.8711L224.852 28.7656V27.9043C224.852 26.873 224.582 26.1172 224.043 25.6367C223.504 25.1562 222.754 24.916 221.793 24.916C220.844 24.916 219.912 25.0508 218.998 25.3203C218.084 25.5898 217.17 25.9297 216.256 26.3398L214.48 22.7188C215.523 22.168 216.689 21.7344 217.979 21.418C219.279 21.1016 220.621 20.9434 222.004 20.9434ZM224.852 31.8945L222.777 31.9648C221.043 32.0117 219.836 32.3223 219.156 32.8965C218.488 33.4707 218.154 34.2266 218.154 35.1641C218.154 35.9844 218.395 36.5703 218.875 36.9219C219.355 37.2617 219.982 37.4316 220.756 37.4316C221.904 37.4316 222.871 37.0918 223.656 36.4121C224.453 35.7324 224.852 34.7656 224.852 33.5117V31.8945Z" fill="#750000"/>
    <rect x="2" y="2" width="52" height="52" rx="26" stroke="#750000" stroke-width="4"/>
    <path fill-rule="evenodd" clip-rule="evenodd" d="M21.6087 39.4014C20.8347 40.1895 19.5685 40.2009 18.7804 39.4269L8.59858 29.4269C8.21569 29.0508 8 28.5367 8 28C8 27.4633 8.21569 26.9492 8.59858 26.5731L18.7804 16.5731C19.5685 15.7991 20.8347 15.8105 21.6087 16.5986C22.3827 17.3866 22.3713 18.6529 21.5832 19.4269L14.8906 26L46 26C47.1046 26 48 26.8954 48 28C48 29.1046 47.1046 30 46 30L14.8906 30L21.5832 36.5731C22.3713 37.3471 22.3827 38.6134 21.6087 39.4014Z" fill="#750000"/>
</svg>
